<svg width="54" height="54" viewBox="0 0 54 54" fill="none" xmlns="http://www.w3.org/2000/svg">
<path d="M24.2421 6.4198C24.0048 4.64855 25.2517 2.99715 27.0388 3.00002C31.5776 3.00733 36.0458 4.30251 39.9093 6.76763C44.687 9.816 48.2317 14.4567 49.9159 19.868C51.6 25.2793 51.3149 31.112 49.111 36.3332C46.9071 41.5544 42.9266 45.8273 37.8744 48.3951C32.8222 50.9629 27.0243 51.6601 21.5074 50.3631C15.9905 49.066 11.1106 45.8586 7.73182 41.3086C4.35303 36.7586 2.69338 31.1598 3.04676 25.5035C3.33253 20.9295 4.91981 16.5565 7.58912 12.8856C8.64011 11.4402 10.7091 11.4062 12.0001 12.642C13.2911 13.8777 13.3056 15.9138 12.3279 17.4097C10.6774 19.9349 9.69613 22.8599 9.50575 25.9071C9.24766 30.0381 10.4598 34.1272 12.9275 37.4503C15.3952 40.7734 18.9592 43.116 22.9885 44.0632C27.0178 45.0105 31.2523 44.5014 34.9421 42.6259C38.632 40.7505 41.5391 37.6298 43.1488 33.8165C44.7584 30.0032 44.9666 25.7433 43.7366 21.7912C42.5066 17.839 39.9177 14.4497 36.4284 12.2233C33.8545 10.581 30.9132 9.64974 27.9005 9.49473C26.1158 9.40291 24.4795 8.19105 24.2421 6.4198Z" fill="#627D98"/>
</svg>
