<svg width="45" height="53" viewBox="0 0 45 53" fill="none" xmlns="http://www.w3.org/2000/svg">
<path d="M15.2167 6.3949C14.9794 4.62365 16.2263 2.97228 18.0133 2.97517C20.7966 2.97966 23.5663 3.46829 26.1965 4.42737C29.8434 5.7572 33.1134 7.9518 35.7259 10.8229C38.3384 13.6941 40.2155 17.1561 41.1962 20.912C42.1768 24.668 42.2318 28.6057 41.3564 32.3876C40.481 36.1694 38.7013 39.6825 36.1699 42.6254C33.6386 45.5684 30.4312 47.8535 26.8228 49.2846C23.2144 50.7157 19.3127 51.2502 15.4523 50.8422C12.6682 50.548 9.9655 49.7699 7.46342 48.5509C5.85685 47.7682 5.46244 45.7369 6.45397 44.2501C7.4455 42.7634 9.44784 42.3937 11.0914 43.0955C12.6916 43.7788 14.3902 44.2223 16.1325 44.4065C18.9519 44.7044 21.8015 44.3141 24.4369 43.2689C27.0723 42.2236 29.4148 40.5547 31.2636 38.4054C33.1124 36.256 34.4122 33.6902 35.0515 30.9281C35.6909 28.166 35.6507 25.2901 34.9345 22.5469C34.2183 19.8038 32.8474 17.2753 30.9393 15.1784C29.0313 13.0814 26.643 11.4786 23.9795 10.5074C22.3335 9.90717 20.6127 9.55924 18.8751 9.46986C17.0903 9.37806 15.4541 8.16615 15.2167 6.3949Z" fill="#627D98"/>
</svg>
