<svg xmlns="http://www.w3.org/2000/svg" viewBox="0 0 94 89"><defs><style>.a{opacity:0.29;}.a,.d{font-size:64px;font-family:VarelaRound-Regular, Varela Round;}.a,.c,.d{fill:#617d98;}.b{letter-spacing:0.03em;}</style></defs><text class="a" transform="translate(3.53 -28.31)"><tspan class="b">X</tspan><tspan x="44.74" y="0">X</tspan></text><circle class="c" cx="17.34" cy="63.28" r="5.25"/><circle class="c" cx="22.84" cy="57.78" r="3.75"/><path class="c" d="M9.87,75.93A16.51,16.51,0,0,1,3,70.07,16.67,16.67,0,0,1,.27,60.44V35.16a2.88,2.88,0,0,1,.84-2.08,2.73,2.73,0,0,1,2-.86,2.85,2.85,0,0,1,2.08.86,2.83,2.83,0,0,1,.87,2.08V60.64a11.57,11.57,0,0,0,1.76,6.52,11,11,0,0,0,4.64,4,14.76,14.76,0,0,0,12.29,0,11.05,11.05,0,0,0,4.64-4,11.65,11.65,0,0,0,1.76-6.52V35.16A2.88,2.88,0,0,1,32,33.08a2.75,2.75,0,0,1,2-.86A2.94,2.94,0,0,1,37,35.16V60.44a16.67,16.67,0,0,1-2.69,9.63,16.45,16.45,0,0,1-6.91,5.86,21,21,0,0,1-17.54,0Z"/><text class="d" transform="translate(0.53 -29.37)">U</text></svg>