<svg width="31" height="50" viewBox="0 0 31 50" fill="none" xmlns="http://www.w3.org/2000/svg">
<path d="M1.21675 6.3949C0.979388 4.62365 2.22637 2.97223 4.01345 2.9751C8.88379 2.98292 13.6652 4.47373 17.702 7.28858C22.6286 10.7239 26.0881 15.8815 27.3974 21.7431C28.7068 27.6047 27.7707 33.7441 24.7742 38.9493C22.3188 43.2143 18.6263 46.598 14.2222 48.6775C12.6062 49.4405 10.7751 48.4767 10.2362 46.7728C9.69726 45.0689 10.6624 43.2759 12.2384 42.4334C15.111 40.8977 17.5192 38.5804 19.1656 35.7204C21.3541 31.9189 22.0378 27.4349 21.0815 23.1539C20.1252 18.8729 17.5986 15.106 14.0004 12.597C11.2935 10.7095 8.12822 9.63718 4.87511 9.46982C3.09039 9.37799 1.45411 8.16615 1.21675 6.3949Z" fill="#627D98"/>
</svg>
