<svg width="29" height="37" viewBox="0 0 29 37" fill="none" xmlns="http://www.w3.org/2000/svg">
<path d="M1.21675 6.3949C0.979388 4.62365 2.22629 2.97228 4.01337 2.97516C6.95804 2.97992 9.88625 3.52662 12.649 4.59757C16.421 6.05973 19.7622 8.45166 22.3621 11.5511C24.962 14.6505 26.7363 18.3568 27.52 22.3257C28.094 25.2326 28.123 28.2113 27.6155 31.1119C27.3074 32.8722 25.4643 33.8129 23.7614 33.271C22.0584 32.7291 21.1496 30.907 21.3697 29.1336C21.5984 27.2902 21.5335 25.4152 21.171 23.5794C20.5986 20.6808 19.3028 17.9738 17.404 15.7102C15.5051 13.4465 13.0649 11.6996 10.31 10.6317C8.56524 9.95534 6.73015 9.56528 4.87507 9.46986C3.09035 9.37806 1.45411 8.16615 1.21675 6.3949Z" fill="#627D98"/>
</svg>
