<svg width="54" height="54" viewBox="0 0 54 54" fill="none" xmlns="http://www.w3.org/2000/svg">
<path d="M24.2167 6.3949C23.9794 4.62365 25.2263 2.97226 27.0134 2.97515C30.6488 2.98102 34.2503 3.81296 37.5397 5.42568C41.8018 7.51526 45.3486 10.8218 47.7314 14.9271C50.1143 19.0324 51.2263 23.7521 50.9268 28.4894C50.6274 33.2267 48.9298 37.7688 46.0489 41.5413C43.168 45.3138 39.2331 48.1473 34.7418 49.6835C30.2505 51.2197 25.4045 51.3896 20.8167 50.1717C16.2288 48.9537 12.1052 46.4027 8.96719 42.8412C6.54529 40.0924 4.79447 36.837 3.83166 33.3314C3.35836 31.6081 4.62318 29.9704 6.39443 29.7331C8.16567 29.4957 9.76561 30.7551 10.3241 32.4527C11.0616 34.6946 12.248 36.7754 13.8229 38.5629C16.1147 41.1641 19.1264 43.0272 22.4772 43.9167C25.8279 44.8063 29.3672 44.6822 32.6474 43.5602C35.9276 42.4383 38.8015 40.3688 40.9056 37.6135C43.0096 34.8583 44.2494 31.5409 44.4682 28.0811C44.6869 24.6212 43.8747 21.1741 42.1344 18.1758C40.394 15.1775 37.8037 12.7626 34.6909 11.2365C32.5518 10.1878 30.2321 9.59111 27.8751 9.46986C26.0904 9.37804 24.4541 8.16615 24.2167 6.3949Z" fill="#627D98"/>
</svg>
